<?xml version="1.0" encoding="UTF-8" standalone="no"?>
<!-- Created with Inkscape (http://www.inkscape.org/) -->
<svg
   xmlns:dc="http://purl.org/dc/elements/1.1/"
   xmlns:cc="http://creativecommons.org/ns#"
   xmlns:rdf="http://www.w3.org/1999/02/22-rdf-syntax-ns#"
   xmlns:svg="http://www.w3.org/2000/svg"
   xmlns="http://www.w3.org/2000/svg"
   xmlns:sodipodi="http://sodipodi.sourceforge.net/DTD/sodipodi-0.dtd"
   xmlns:inkscape="http://www.inkscape.org/namespaces/inkscape"
   version="1.0"
   width="990"
   height="712"
   id="svg1354"
   sodipodi:version="0.32"
   inkscape:version="0.46"
   sodipodi:docname="wiithon.svg"
   inkscape:output_extension="org.inkscape.output.svg.inkscape">
  <metadata
     id="metadata7">
    <rdf:RDF>
      <cc:Work
         rdf:about="">
        <dc:format>image/svg+xml</dc:format>
        <dc:type
           rdf:resource="http://purl.org/dc/dcmitype/StillImage" />
      </cc:Work>
    </rdf:RDF>
  </metadata>
  <sodipodi:namedview
     inkscape:window-height="725"
     inkscape:window-width="1280"
     inkscape:pageshadow="2"
     inkscape:pageopacity="0.0"
     guidetolerance="10.0"
     gridtolerance="10.0"
     objecttolerance="10.0"
     borderopacity="1.0"
     bordercolor="#666666"
     pagecolor="#ffffff"
     id="base"
     showgrid="false"
     inkscape:zoom="0.54545455"
     inkscape:cx="495"
     inkscape:cy="371.57719"
     inkscape:window-x="0"
     inkscape:window-y="25"
     inkscape:current-layer="svg1354" />
  <defs
     id="defs1357">
    <inkscape:perspective
       sodipodi:type="inkscape:persp3d"
       inkscape:vp_x="0 : 222.5 : 1"
       inkscape:vp_y="0 : 1000 : 0"
       inkscape:vp_z="990 : 222.5 : 1"
       inkscape:persp3d-origin="495 : 148.33333 : 1"
       id="perspective9" />
  </defs>
  <path
     d="M 161.49725,453.84276 C 143.32409,448.85296 125.60866,432.01436 117.85927,412.36475 C 112.66456,399.19286 93.893374,333.10939 28.098624,96.36476 L 18.232654,60.86476 L 62.750494,60.60433 C 87.235314,60.46109 107.58168,60.68609 107.96467,61.10433 C 108.34765,61.52257 125.01479,126.03945 145.00275,204.47518 L 181.3445,347.08562 L 198.61859,280.97518 C 239.63954,123.98211 246.60698,98.66492 251.784,87.79102 C 258.76041,73.13764 270.953,62.66692 285.43074,58.89595 C 293.05892,56.90906 310.63804,56.88786 318.19589,58.85643 C 334.1507,63.01213 346.62104,74.51595 353.48642,91.41177 C 357.67301,101.71502 366.68286,134.88436 400.33014,263.86475 C 411.66499,307.31475 421.26527,343.65028 421.66408,344.61038 C 422.11552,345.69717 436.16501,292.38895 458.88919,203.36654 L 495.38919,60.37708 L 540.60781,60.37092 C 576.34882,60.36605 585.73577,60.62675 585.39393,61.61476 C 585.15606,62.30226 575.52736,96.83976 563.99682,138.36475 C 508.89371,336.80781 489.71121,403.44895 484.30897,415.20503 C 475.13257,435.17426 459.71213,449.05026 441.39457,453.82136 C 433.74302,455.81436 417.10657,455.83286 409.52025,453.85686 C 398.9554,451.10506 392.91237,447.46766 383.84856,438.40466 C 376.76931,431.32606 374.50963,428.23916 370.64254,420.36475 C 364.32036,407.49104 358.2264,386.49435 319.41613,243.86475 C 310.28699,210.31475 302.56581,182.18975 302.25794,181.36475 C 301.95008,180.53975 292.53019,213.34478 281.32487,254.26481 C 256.69695,344.20203 243.72366,390.66366 239.69231,403.36475 C 230.97842,430.81856 215.13449,448.39456 194.24485,453.78056 C 186.71172,455.72286 168.47076,455.75746 161.49725,453.84276 z M 629.88919,315.86475 L 629.88919,179.36475 L 672.38919,179.36475 L 714.88919,179.36475 L 714.88919,315.86475 L 714.88919,452.36476 L 672.38919,452.36476 L 629.88919,452.36476 L 629.88919,315.86475 z M 800.88919,315.86475 L 800.88919,179.36475 L 843.38919,179.36475 L 885.88919,179.36475 L 885.88919,315.86475 L 885.88919,452.36476 L 843.38919,452.36476 L 800.88919,452.36476 L 800.88919,315.86475 z M 917.88919,438.86476 L 917.88919,425.36476 L 912.88919,425.36476 C 908.22252,425.36476 907.88919,425.19806 907.88919,422.86475 L 907.88919,420.36475 L 920.88919,420.36475 L 933.88919,420.36475 L 933.88919,422.86475 C 933.88919,425.19806 933.55586,425.36476 928.88919,425.36476 L 923.88919,425.36476 L 923.88919,438.86476 L 923.88919,452.36476 L 920.88919,452.36476 L 917.88919,452.36476 L 917.88919,438.86476 z M 935.88919,436.36476 L 935.88919,420.36475 L 940.34625,420.36475 L 944.8033,420.36475 L 947.84625,430.22556 C 949.51987,435.64906 950.88919,440.68906 950.88919,441.42556 C 950.88919,444.54756 952.84278,440.24706 955.80027,430.61476 L 958.94741,420.36475 L 963.41831,420.36475 L 967.88921,420.36475 L 967.88921,436.36476 L 967.88921,452.36476 L 964.88921,452.36476 L 961.88921,452.36476 L 961.81031,441.11476 C 961.72491,428.95226 961.77431,428.92376 957.36577,443.67226 C 954.73521,452.47266 954.7305,452.47956 951.59155,452.17226 C 948.51227,451.87086 948.39,451.65676 945.41961,441.36476 L 942.38919,430.86476 L 942.10536,441.61476 L 941.82153,452.36476 L 938.85536,452.36476 L 935.88919,452.36476 L 935.88919,436.36476 z M 660.38919,132.26094 C 641.12812,128.35843 625.17898,111.86886 621.9079,92.4757 C 617.92279,68.84929 633.67722,45.08296 657.42415,38.89767 C 669.54317,35.74107 685.06644,37.38046 696.1264,42.98496 C 702.75028,46.34154 712.81464,55.97447 716.20407,62.20197 C 727.84444,83.58916 720.94893,111.49246 700.83347,124.40051 C 689.6802,131.55754 672.95804,134.80752 660.38919,132.26094 z M 831.38919,132.26094 C 806.44619,127.20721 788.79101,102.35016 792.81934,77.95772 C 795.90933,59.24711 810.11053,43.66776 828.42415,38.89767 C 840.53206,35.74396 856.0668,37.38064 867.10205,42.97262 C 873.74974,46.34126 883.12989,55.29418 886.88135,61.85105 C 898.92947,82.90898 892.07198,111.4135 871.83347,124.40051 C 860.6802,131.55754 843.95804,134.80752 831.38919,132.26094 z"
     style="fill:#999999;fill-opacity:1"
     id="path1372" />
  <path
     d=""
     style="fill:#000000"
     id="path1363" />
  <text
     xml:space="preserve"
     style="font-size:203.84515381px;font-style:normal;font-weight:normal;fill:#999999;fill-opacity:1;stroke:none;stroke-width:1px;stroke-linecap:butt;stroke-linejoin:miter;stroke-opacity:1;font-family:Bitstream Vera Sans"
     x="252.19995"
     y="655.10388"
     id="text2382"><tspan
       sodipodi:role="line"
       id="tspan2384"
       x="252.19995"
       y="655.10388"
       style="font-weight:bold;-inkscape-font-specification:Bitstream Vera Sans Bold">THON</tspan></text>
</svg>
