<?xml version="1.0" encoding="UTF-8" standalone="no"?>
<!-- Created with Inkscape (http://www.inkscape.org/) -->

<svg
   xmlns:dc="http://purl.org/dc/elements/1.1/"
   xmlns:cc="http://creativecommons.org/ns#"
   xmlns:rdf="http://www.w3.org/1999/02/22-rdf-syntax-ns#"
   xmlns:svg="http://www.w3.org/2000/svg"
   xmlns="http://www.w3.org/2000/svg"
   xmlns:sodipodi="http://sodipodi.sourceforge.net/DTD/sodipodi-0.dtd"
   xmlns:inkscape="http://www.inkscape.org/namespaces/inkscape"
   version="1.0"
   width="990"
   height="990"
   id="svg1354"
   sodipodi:version="0.32"
   inkscape:version="0.47pre4 r22446"
   sodipodi:docname="wiithon.svg"
   inkscape:output_extension="org.inkscape.output.svg.inkscape">
  <metadata
     id="metadata7">
    <rdf:RDF>
      <cc:Work
         rdf:about="">
        <dc:format>image/svg+xml</dc:format>
        <dc:type
           rdf:resource="http://purl.org/dc/dcmitype/StillImage" />
        <dc:title></dc:title>
      </cc:Work>
    </rdf:RDF>
  </metadata>
  <sodipodi:namedview
     inkscape:window-height="725"
     inkscape:window-width="1280"
     inkscape:pageshadow="2"
     inkscape:pageopacity="0.0"
     guidetolerance="10.0"
     gridtolerance="10.0"
     objecttolerance="10.0"
     borderopacity="1.0"
     bordercolor="#666666"
     pagecolor="#ffffff"
     id="base"
     showgrid="false"
     inkscape:zoom="0.47878788"
     inkscape:cx="495"
     inkscape:cy="495"
     inkscape:window-x="0"
     inkscape:window-y="25"
     inkscape:current-layer="svg1354"
     inkscape:window-maximized="0" />
  <defs
     id="defs1357">
    <inkscape:perspective
       sodipodi:type="inkscape:persp3d"
       inkscape:vp_x="0 : 222.5 : 1"
       inkscape:vp_y="0 : 1000 : 0"
       inkscape:vp_z="990 : 222.5 : 1"
       inkscape:persp3d-origin="495 : 148.33333 : 1"
       id="perspective9" />
  </defs>
  <rect
     style="fill:#ffffff;fill-opacity:1;stroke:none"
     id="rect2382"
     width="990"
     height="990"
     x="0"
     y="0" />
  <path
     d=""
     style="fill:#000000"
     id="path1363" />
  <path
     d="m 161.49725,601.19332 c -18.17316,-4.9898 -35.88859,-21.8284 -43.63798,-41.47801 -5.19471,-13.17189 -23.965896,-79.25536 -89.760646,-315.99999 l -9.86597,-35.5 44.51784,-0.26043 c 24.48482,-0.14324 44.831186,0.0818 45.214176,0.5 0.38298,0.41824 17.05012,64.93512 37.03808,143.37085 l 36.34175,142.61044 17.27409,-66.11044 c 41.02095,-156.99307 47.98839,-182.31026 53.16541,-193.18416 6.97641,-14.65338 19.169,-25.1241 33.64674,-28.89507 7.62818,-1.98689 25.2073,-2.00809 32.76515,-0.0395 15.95481,4.1557 28.42515,15.65952 35.29053,32.55534 4.18659,10.30325 13.19644,43.47259 46.84372,172.45298 11.33485,43.45 20.93513,79.78553 21.33394,80.74563 0.45144,1.08679 14.50093,-52.22143 37.22511,-141.24384 l 36.5,-142.98946 45.21862,-0.006 c 35.74101,-0.005 45.12796,0.25583 44.78612,1.24384 -0.23787,0.6875 -9.86657,35.225 -21.39711,76.74999 -55.10311,198.44306 -74.28561,265.0842 -79.68785,276.84028 -9.1764,19.96923 -24.59684,33.84523 -42.9144,38.61633 -7.65155,1.993 -24.288,2.0115 -31.87432,0.0355 -10.56485,-2.7518 -16.60788,-6.3892 -25.67169,-15.4522 -7.07925,-7.0786 -9.33893,-10.1655 -13.20602,-18.03991 -6.32218,-12.87371 -12.41614,-33.8704 -51.22641,-176.5 -9.12914,-33.55 -16.85032,-61.675 -17.15819,-62.5 -0.30786,-0.825 -9.72775,31.98003 -20.93307,72.90006 -24.62792,89.93722 -37.60121,136.39885 -41.63256,149.09994 -8.71389,27.45381 -24.55782,45.02981 -45.44746,50.41581 -7.53313,1.9423 -25.77409,1.9769 -32.7476,0.0622 z m 468.39194,-137.97801 0,-136.5 42.5,0 42.5,0 0,136.5 0,136.50001 -42.5,0 -42.5,0 0,-136.50001 z m 171,0 0,-136.5 42.5,0 42.5,0 0,136.5 0,136.50001 -42.5,0 -42.5,0 0,-136.50001 z m 117,123.00001 0,-13.5 -5,0 c -4.66667,0 -5,-0.1667 -5,-2.50001 l 0,-2.5 13,0 13,0 0,2.5 c 0,2.33331 -0.33333,2.50001 -5,2.50001 l -5,0 0,13.5 0,13.5 -3,0 -3,0 0,-13.5 z m 18,-2.5 0,-16.00001 4.45706,0 4.45705,0 3.04295,9.86081 c 1.67362,5.4235 3.04294,10.4635 3.04294,11.2 0,3.122 1.95359,-1.1785 4.91108,-10.8108 l 3.14714,-10.25001 4.4709,0 4.4709,0 0,16.00001 0,16 -3,0 -3,0 -0.0789,-11.25 c -0.0854,-12.1625 -0.036,-12.191 -4.44454,2.5575 -2.63056,8.8004 -2.63527,8.8073 -5.77422,8.5 -3.07928,-0.3014 -3.20155,-0.5155 -6.17194,-10.8075 l -3.03042,-10.5 -0.28383,10.75 -0.28383,10.75 -2.96617,0 -2.96617,0 0,-16 z m -275.5,-304.10382 c -19.26107,-3.90251 -35.21021,-20.39208 -38.48129,-39.78524 -3.98511,-23.62641 11.76932,-47.39274 35.51625,-53.57803 12.11902,-3.1566 27.64229,-1.51721 38.70225,4.08729 6.62388,3.35658 16.68824,12.98951 20.07767,19.21701 11.64037,21.38719 4.74486,49.29049 -15.3706,62.19854 -11.15327,7.15703 -27.87543,10.40701 -40.44428,7.86043 z m 171,0 c -24.943,-5.05373 -42.59818,-29.91078 -38.56985,-54.30322 3.08999,-18.71061 17.29119,-34.28996 35.60481,-39.06005 12.10791,-3.15371 27.64265,-1.51703 38.6779,4.07495 6.64769,3.36864 16.02784,12.32156 19.7793,18.87843 12.04812,21.05793 5.19063,49.56245 -15.04788,62.54946 -11.15327,7.15703 -27.87543,10.40701 -40.44428,7.86043 z"
     style="fill:#999999;fill-opacity:1"
     id="path1372" />
  <text
     xml:space="preserve"
     style="font-size:203.84515381px;font-style:normal;font-weight:normal;fill:#999999;fill-opacity:1;stroke:none;font-family:Bitstream Vera Sans"
     x="252.19995"
     y="802.45447"
     id="text2382"><tspan
       sodipodi:role="line"
       id="tspan2384"
       x="252.19995"
       y="802.45447"
       style="font-weight:bold;-inkscape-font-specification:Bitstream Vera Sans Bold">THON</tspan></text>
</svg>
