/* XPM */
static char * wiithon_xpm[] = {
"32 32 95 2",
"  	c None",
". 	c #FFFFFF",
"+ 	c #FEFEFE",
"@ 	c #F5F5F5",
"# 	c #E5E5E5",
"$ 	c #F3F3F3",
"% 	c #DEDEDE",
"& 	c #EEEEEE",
"* 	c #E2E2E2",
"= 	c #E4E4E4",
"- 	c #E8E8E8",
"; 	c #D2D2D2",
"> 	c #939393",
", 	c #AAAAAA",
"' 	c #FCFCFC",
") 	c #A3A3A3",
"! 	c #949494",
"~ 	c #DADADA",
"{ 	c #EDEDED",
"] 	c #929292",
"^ 	c #969696",
"/ 	c #B5B5B5",
"( 	c #ACACAC",
"_ 	c #E7E7E7",
": 	c #F0F0F0",
"< 	c #B0B0B0",
"[ 	c #9E9E9E",
"} 	c #999999",
"| 	c #E1E1E1",
"1 	c #DBDBDB",
"2 	c #979797",
"3 	c #A5A5A5",
"4 	c #9C9C9C",
"5 	c #F9F9F9",
"6 	c #BBBBBB",
"7 	c #989898",
"8 	c #D3D3D3",
"9 	c #CECECE",
"0 	c #FBFBFB",
"a 	c #A1A1A1",
"b 	c #D5D5D5",
"c 	c #BDBDBD",
"d 	c #959595",
"e 	c #D9D9D9",
"f 	c #F4F4F4",
"g 	c #DDDDDD",
"h 	c #D0D0D0",
"i 	c #BABABA",
"j 	c #9B9B9B",
"k 	c #D1D1D1",
"l 	c #FDFDFD",
"m 	c #B3B3B3",
"n 	c #9A9A9A",
"o 	c #CDCDCD",
"p 	c #C3C3C3",
"q 	c #F8F8F8",
"r 	c #BCBCBC",
"s 	c #B2B2B2",
"t 	c #CFCFCF",
"u 	c #CCCCCC",
"v 	c #EBEBEB",
"w 	c #D4D4D4",
"x 	c #B1B1B1",
"y 	c #AFAFAF",
"z 	c #B8B8B8",
"A 	c #F6F6F6",
"B 	c #EAEAEA",
"C 	c #D8D8D8",
"D 	c #C5C5C5",
"E 	c #DCDCDC",
"F 	c #A4A4A4",
"G 	c #E6E6E6",
"H 	c #A2A2A2",
"I 	c #9F9F9F",
"J 	c #D7D7D7",
"K 	c #ECECEC",
"L 	c #FAFAFA",
"M 	c #E3E3E3",
"N 	c #A9A9A9",
"O 	c #C8C8C8",
"P 	c #C2C2C2",
"Q 	c #D6D6D6",
"R 	c #C6C6C6",
"S 	c #ABABAB",
"T 	c #F7F7F7",
"U 	c #909090",
"V 	c #AEAEAE",
"W 	c #8F8F8F",
"X 	c #C7C7C7",
"Y 	c #CBCBCB",
"Z 	c #9D9D9D",
"` 	c #888888",
" .	c #CACACA",
"..	c #B6B6B6",
"+.	c #B4B4B4",
". . . . . . . . . . . . . . . . . . . . . . . . . . . . . . . . ",
". . . . . . . . . . . . . . . . . . . . . . . . . . . . . . . . ",
". . . . . . . . . . . . . . . . . . . . . . . . . . . . . . . . ",
". . . . . . . . . . . . . . . . . . . . . . . . . . . . . . . . ",
". . . . . . . . . . . . . . . . . . . . . . . . . . . . . . . . ",
". . . . . . . . . . . . . . . . . . . . . . . + . + . . . . . . ",
"@ # # $ . . . + . % & . . . . . * = - . ; > , + . ' ) ! ~ . . . ",
"{ ] ^ / . . . . ( ^ ] _ + . . : ] ^ < . [ } ^ | . 1 2 } 3 . . . ",
". 4 } } . . . 5 > } } 6 . . . ; 7 7 8 . 9 ] 3 + . 0 a > b . . . ",
". c } d & . + e 2 } } 4 . . . / } ! f . . . . + . + . . . . . . ",
"+ g 2 7 h . . i } j 7 ! : . . 7 } a . . * 8 k ' . ' k 8 * . . . ",
". l > } m . . n 7 o 2 7 k . { d } p . . 6 7 > q . q > 7 r . . . ",
". . ( } 2 . { d d { m } s . t 7 ^ = + . 6 } ! 5 . 5 ! } r . . . ",
". . u 7 d v o 7 } . w 7 ^ . x } d . . . 6 } ! 5 . 5 ! } r . . . ",
". . { d 7 k y } z . A > d B d } m . . . 6 } ! 5 . 5 ! } r . . . ",
". . . j } s 7 2 C + . ) 7 < ^ 7 w + . . 6 } ! 5 . 5 ! } r . . . ",
". . . 6 } 7 } > 5 . . D 7 7 } > @ . . . 6 } ! 5 . 5 ! } r . . . ",
". . + E 2 } } F . . + G ^ } } H . . . . 6 } ! 5 . 5 ! } r . . . ",
". . . . I 7 ! J . . . . I 7 ! b . . . . i 2 ] q . q ] 2 r v 1 K ",
". . . + ' 8 | . . . . + L 8 M . . . . . G e J ' . ' J e G q & q ",
". . . . . . . + . . . . . . . + . . + . . . . + . . + . . + . . ",
". . . . . . . . x 3 N F O r b . P t . t [ a Q . R S . w p . . . ",
". . . . . . . . T = U 5 ' V h . z R M > A : U & r 7 8 u z . . . ",
". . . . . . . . . K W . . V ^ > 2 R o , . . a Q r D } o z . . . ",
". . . . . . . . . K W . . V h . z R ~ 7 . . > = r X Y Z z . . . ",
". . . . . . . . . B ` . . N  .. s P . ..^ d c . z p . ^ +.. . . ",
". . . . . . . . . . . + + . . + . . + . . . . + . . + . . + . . ",
". . . . . . . . . . . . . . . . . . . . . . . . . . . . . . . . ",
". . . . . . . . . . . . . . . . . . . . . . . . . . . . . . . . ",
". . . . . . . . . . . . . . . . . . . . . . . . . . . . . . . . ",
". . . . . . . . . . . . . . . . . . . . . . . . . . . . . . . . ",
". . . . . . . . . . . . . . . . . . . . . . . . . . . . . . . . "};
